<svg width="24" height="25" viewBox="0 0 24 25" fill="none" xmlns="http://www.w3.org/2000/svg">
<g clip-path="url(#clip0_5_801)">
<path d="M11.9998 3.5C12.1318 3.5 12.2628 3.5 12.3928 3.5C11.1081 4.69371 10.2824 6.29985 10.0591 8.03923C9.83577 9.7786 10.229 11.5412 11.1705 13.0207C12.112 14.5002 13.5422 15.603 15.2124 16.1375C16.8826 16.6719 18.6873 16.6042 20.3128 15.946C19.6875 17.4505 18.6656 18.757 17.356 19.7263C16.0464 20.6955 14.4982 21.291 12.8767 21.4494C11.2552 21.6077 9.62104 21.323 8.14867 20.6254C6.6763 19.9279 5.42089 18.8437 4.51637 17.4886C3.61185 16.1335 3.09213 14.5583 3.01267 12.931C2.9332 11.3037 3.29696 9.6853 4.06515 8.24852C4.83334 6.81174 5.97714 5.61043 7.37454 4.77274C8.77195 3.93505 10.3705 3.4924 11.9998 3.492V3.5Z" stroke="white" stroke-width="2" stroke-linecap="round" stroke-linejoin="round"/>
</g>
<defs>
<clipPath id="clip0_5_801">
<rect width="24" height="24" fill="white" transform="translate(0 0.5)"/>
</clipPath>
</defs>
</svg>
