<svg width="40" height="17" viewBox="0 0 40 17" fill="none" xmlns="http://www.w3.org/2000/svg">
<path d="M26.4968 16.095C21.7747 16.095 16.5768 14.2814 10.9858 10.6752C10.663 10.4672 10.5698 10.0365 10.7785 9.71376C10.9872 9.39098 11.4171 9.29706 11.7399 9.50645C18.5809 13.9183 24.7479 15.535 30.069 14.3044C34.8732 13.1955 37.5883 10.0059 38.4266 8.86645C34.7041 4.68418 30.4975 2.47756 25.9166 2.30713C17.1722 1.98156 9.84282 9.23237 9.77047 9.30541C9.63969 9.43619 9.46229 9.51063 9.27725 9.51063H0.695655C0.311653 9.51063 0 9.19898 0 8.81497C0 8.43097 0.311653 8.11932 0.695655 8.11932H8.99273C10.3089 6.86645 17.342 0.597903 25.9577 0.916513C31.0902 1.10434 35.7587 3.60939 39.8325 8.3621C40.0273 8.58958 40.0551 8.91584 39.9007 9.17324C39.7789 9.37567 36.8481 14.1541 30.4105 15.6533C29.1465 15.9482 27.8408 16.095 26.4968 16.095Z" fill="#F8AF27"/>
<path d="M25.6842 3.24072C23.2299 3.24072 21.2104 5.13012 20.9976 7.53013H22.4097C22.6184 5.90021 23.9986 4.63203 25.6842 4.63203C27.5131 4.63203 29.0011 6.12004 29.0011 7.94891C29.0011 9.77779 27.5131 11.2658 25.6842 11.2658C24.4633 11.2658 23.4066 10.5952 22.8306 9.61013H21.2849C21.959 11.3875 23.6737 12.6571 25.6842 12.6571C28.2804 12.6571 30.3924 10.5451 30.3924 7.94891C30.3924 5.35273 28.2804 3.24072 25.6842 3.24072Z" fill="#F8AF27"/>
</svg>
