<svg width="16" height="22" viewBox="0 0 16 22" fill="none" xmlns="http://www.w3.org/2000/svg">
<path fill-rule="evenodd" clip-rule="evenodd" d="M1.37868 1.37868C1.94129 0.816071 2.70435 0.5 3.5 0.5H12.5C13.2956 0.5 14.0587 0.816071 14.6213 1.37868C15.1839 1.94129 15.5 2.70435 15.5 3.5V20.75C15.5 21.0453 15.3267 21.3132 15.0572 21.4342C14.7878 21.5552 14.4725 21.5068 14.2517 21.3106L8 15.7535L1.74827 21.3106C1.52753 21.5068 1.21218 21.5552 0.942758 21.4342C0.673333 21.3132 0.5 21.0453 0.5 20.75V3.5C0.5 2.70435 0.816071 1.94129 1.37868 1.37868ZM3.5 2C3.10218 2 2.72064 2.15804 2.43934 2.43934C2.15804 2.72064 2 3.10218 2 3.5V19.0799L7.50173 14.1894C7.78589 13.9369 8.21411 13.9369 8.49827 14.1894L14 19.0799V3.5C14 3.10218 13.842 2.72064 13.5607 2.43934C13.2794 2.15804 12.8978 2 12.5 2H3.5Z" fill="#F82727"/>
</svg>
