<svg width="14" height="24" viewBox="0 0 14 24" fill="none" xmlns="http://www.w3.org/2000/svg">
<path d="M0.324908 23.8212C0.691787 24.1071 1.22464 24.0439 1.5129 23.6767L7.05976 16.6403L12.4814 23.6677C12.6474 23.8844 12.8978 23.9957 13.154 23.9957C13.3346 23.9957 13.5151 23.9385 13.6694 23.8212C14.0392 23.5383 14.1091 23.0116 13.8267 22.6414L8.13711 15.2769L13.7742 8.12615C14.0217 7.81015 14.013 7.36774 13.7539 7.06377L7.95949 0.295206C7.80226 0.111621 7.57514 0.00628534 7.33638 0.000266168C7.09471 -0.00575301 6.86468 0.0905539 6.69871 0.26511L0.441377 6.90727C0.158938 7.20823 0.135645 7.66569 0.386055 7.99373L5.99698 15.2679L0.179321 22.6414C-0.108942 23.0056 -0.0419716 23.5352 0.324908 23.8212ZM2.16513 7.53627L7.28688 2.10096L12.0185 7.62957L7.07432 13.8985L2.16513 7.53627Z" fill="#12965D"/>
</svg>
